<svg width="20" height="20" viewBox="0 0 20 20" fill="none" xmlns="http://www.w3.org/2000/svg">
<path fill-rule="evenodd" clip-rule="evenodd" d="M5.15503 10C5.15503 9.45873 5.24689 8.93979 5.41084 8.45305L2.54108 6.30835C1.98177 7.41971 1.66666 8.67199 1.66666 10C1.66666 11.3269 1.98139 12.5784 2.53991 13.689L5.40813 11.5402C5.24573 11.0557 5.15503 10.5387 5.15503 10Z" fill="#FBBC05"/>
<path fill-rule="evenodd" clip-rule="evenodd" d="M10.1938 5.07578C11.3953 5.07578 12.4806 5.49244 13.3333 6.17426L15.8139 3.75002C14.3023 2.46214 12.3643 1.66669 10.1938 1.66669C6.82399 1.66669 3.92787 3.55267 2.54105 6.30835L5.41081 8.45305C6.07205 6.48866 7.95694 5.07578 10.1938 5.07578Z" fill="#EA4335"/>
<path fill-rule="evenodd" clip-rule="evenodd" d="M10.1938 14.9243C7.95694 14.9243 6.07205 13.5114 5.41081 11.547L2.54105 13.6913C3.92787 16.4474 6.82399 18.3334 10.1938 18.3334C12.2736 18.3334 14.2593 17.6106 15.7496 16.2565L13.0255 14.1955C12.2569 14.6693 11.2891 14.9243 10.1938 14.9243Z" fill="#34A853"/>
<path fill-rule="evenodd" clip-rule="evenodd" d="M18.3333 10C18.3333 9.50759 18.2558 8.97729 18.1395 8.48486H10.1938V11.7046H14.7674C14.5387 12.8023 13.9163 13.6462 13.0256 14.1955L15.7496 16.2565C17.3151 14.8345 18.3333 12.7163 18.3333 10Z" fill="#4285F4"/>
</svg>
